<svg width="18" height="18" viewBox="0 0 18 18" fill="none" xmlns="http://www.w3.org/2000/svg">
<path d="M2.875 0.25C2.17881 0.25 1.51113 0.526562 1.01884 1.01884C0.526562 1.51113 0.25 2.17881 0.25 2.875V15.125C0.25 15.8212 0.526562 16.4889 1.01884 16.9812C1.51113 17.4734 2.17881 17.75 2.875 17.75H15.125C15.8212 17.75 16.4889 17.4734 16.9812 16.9812C17.4734 16.4889 17.75 15.8212 17.75 15.125V2.875C17.75 2.17881 17.4734 1.51113 16.9812 1.01884C16.4889 0.526562 15.8212 0.25 15.125 0.25H2.875ZM2.875 2H15.125C15.3571 2 15.5796 2.09219 15.7437 2.25628C15.9078 2.42038 16 2.64294 16 2.875V15.125C16 15.3571 15.9078 15.5796 15.7437 15.7437C15.5796 15.9078 15.3571 16 15.125 16H2.875C2.64294 16 2.42038 15.9078 2.25628 15.7437C2.09219 15.5796 2 15.3571 2 15.125V2.875C2 2.64294 2.09219 2.42038 2.25628 2.25628C2.42038 2.09219 2.64294 2 2.875 2Z" fill="#242533"/>
</svg>
