<svg width="35" height="35" viewBox="0 0 35 35" fill="none" xmlns="http://www.w3.org/2000/svg">
<rect width="35" height="35" rx="10" fill="#CE1815"/>
<path d="M21.0333 9.27499C20.7083 9.27499 20.3916 9.39999 20.1416 9.64166L18.3749 11.4083L22.7916 15.8333L24.5583 14.0833C25.0583 13.575 25.0583 12.7833 24.5583 12.3L21.9166 9.64166C21.6666 9.39999 21.3499 9.27499 21.0333 9.27499ZM17.7833 12L11.0333 18.7583L13.1666 18.9917L13.3166 20.9L15.2166 21.0417L15.4583 23.175L22.2083 16.4167L17.7833 12ZM10.5416 19.5333L9.08325 25.1083L14.6666 23.6167L14.4666 21.8167L12.5416 21.675L12.3916 19.7417" fill="white"/>
</svg>
