<svg width="14" height="16" viewBox="0 0 14 16" fill="none" xmlns="http://www.w3.org/2000/svg">
<path d="M4.49992 2.16666C4.2789 2.16666 4.06694 2.25446 3.91066 2.41074C3.75438 2.56702 3.66658 2.77898 3.66658 3C3.66658 3.22101 3.75438 3.43297 3.91066 3.58925C4.06694 3.74553 4.2789 3.83333 4.49992 3.83333C4.72093 3.83333 4.93289 3.74553 5.08917 3.58925C5.24545 3.43297 5.33325 3.22101 5.33325 3C5.33325 2.77898 5.24545 2.56702 5.08917 2.41074C4.93289 2.25446 4.72093 2.16666 4.49992 2.16666ZM2.14158 2.16666C2.31375 1.67872 2.63303 1.25619 3.05542 0.957322C3.4778 0.658452 3.98249 0.497955 4.49992 0.497955C5.01734 0.497955 5.52203 0.658452 5.94442 0.957322C6.3668 1.25619 6.68608 1.67872 6.85825 2.16666H12.8332C13.0543 2.16666 13.2662 2.25446 13.4225 2.41074C13.5788 2.56702 13.6666 2.77898 13.6666 3C13.6666 3.22101 13.5788 3.43297 13.4225 3.58925C13.2662 3.74553 13.0543 3.83333 12.8332 3.83333H6.85825C6.68608 4.32127 6.3668 4.7438 5.94442 5.04267C5.52203 5.34154 5.01734 5.50204 4.49992 5.50204C3.98249 5.50204 3.4778 5.34154 3.05542 5.04267C2.63303 4.7438 2.31375 4.32127 2.14158 3.83333H1.16659C0.945571 3.83333 0.73361 3.74553 0.57733 3.58925C0.421049 3.43297 0.333252 3.22101 0.333252 3C0.333252 2.77898 0.421049 2.56702 0.57733 2.41074C0.73361 2.25446 0.945571 2.16666 1.16659 2.16666H2.14158ZM9.49992 7.16666C9.2789 7.16666 9.06694 7.25446 8.91066 7.41074C8.75438 7.56702 8.66658 7.77898 8.66658 8C8.66658 8.22101 8.75438 8.43297 8.91066 8.58925C9.06694 8.74553 9.2789 8.83333 9.49992 8.83333C9.72093 8.83333 9.93289 8.74553 10.0892 8.58925C10.2455 8.43297 10.3333 8.22101 10.3333 8C10.3333 7.77898 10.2455 7.56702 10.0892 7.41074C9.93289 7.25446 9.72093 7.16666 9.49992 7.16666ZM7.14158 7.16666C7.31375 6.67872 7.63303 6.25619 8.05542 5.95732C8.4778 5.65845 8.98249 5.49796 9.49992 5.49796C10.0173 5.49796 10.522 5.65845 10.9444 5.95732C11.3668 6.25619 11.6861 6.67872 11.8582 7.16666H12.8332C13.0543 7.16666 13.2662 7.25446 13.4225 7.41074C13.5788 7.56702 13.6666 7.77898 13.6666 8C13.6666 8.22101 13.5788 8.43297 13.4225 8.58925C13.2662 8.74553 13.0543 8.83333 12.8332 8.83333H11.8582C11.6861 9.32128 11.3668 9.7438 10.9444 10.0427C10.522 10.3415 10.0173 10.502 9.49992 10.502C8.98249 10.502 8.4778 10.3415 8.05542 10.0427C7.63303 9.7438 7.31375 9.32128 7.14158 8.83333H1.16659C0.945571 8.83333 0.73361 8.74553 0.57733 8.58925C0.421049 8.43297 0.333252 8.22101 0.333252 8C0.333252 7.77898 0.421049 7.56702 0.57733 7.41074C0.73361 7.25446 0.945571 7.16666 1.16659 7.16666H7.14158ZM4.49992 12.1667C4.2789 12.1667 4.06694 12.2545 3.91066 12.4107C3.75438 12.567 3.66658 12.779 3.66658 13C3.66658 13.221 3.75438 13.433 3.91066 13.5893C4.06694 13.7455 4.2789 13.8333 4.49992 13.8333C4.72093 13.8333 4.93289 13.7455 5.08917 13.5893C5.24545 13.433 5.33325 13.221 5.33325 13C5.33325 12.779 5.24545 12.567 5.08917 12.4107C4.93289 12.2545 4.72093 12.1667 4.49992 12.1667ZM2.14158 12.1667C2.31375 11.6787 2.63303 11.2562 3.05542 10.9573C3.4778 10.6585 3.98249 10.498 4.49992 10.498C5.01734 10.498 5.52203 10.6585 5.94442 10.9573C6.3668 11.2562 6.68608 11.6787 6.85825 12.1667H12.8332C13.0543 12.1667 13.2662 12.2545 13.4225 12.4107C13.5788 12.567 13.6666 12.779 13.6666 13C13.6666 13.221 13.5788 13.433 13.4225 13.5893C13.2662 13.7455 13.0543 13.8333 12.8332 13.8333H6.85825C6.68608 14.3213 6.3668 14.7438 5.94442 15.0427C5.52203 15.3415 5.01734 15.502 4.49992 15.502C3.98249 15.502 3.4778 15.3415 3.05542 15.0427C2.63303 14.7438 2.31375 14.3213 2.14158 13.8333H1.16659C0.945571 13.8333 0.73361 13.7455 0.57733 13.5893C0.421049 13.433 0.333252 13.221 0.333252 13C0.333252 12.779 0.421049 12.567 0.57733 12.4107C0.73361 12.2545 0.945571 12.1667 1.16659 12.1667H2.14158Z" fill="#808192"/>
</svg>
