<svg width="19" height="19" viewBox="0 0 19 19" fill="none" xmlns="http://www.w3.org/2000/svg">
<path d="M3.77551 3.954H5.95501C6.15393 3.954 6.34469 4.03302 6.48534 4.17367C6.626 4.31432 6.70501 4.50509 6.70501 4.704C6.70501 4.90292 6.626 5.09368 6.48534 5.23433C6.34469 5.37498 6.15393 5.454 5.95501 5.454H2.46001C2.2611 5.454 2.07034 5.37498 1.92968 5.23433C1.78903 5.09368 1.71001 4.90292 1.71001 4.704V1.212C1.71001 1.01309 1.78903 0.822327 1.92968 0.681675C2.07034 0.541023 2.2611 0.462005 2.46001 0.462005C2.65893 0.462005 2.84969 0.541023 2.99034 0.681675C3.131 0.822327 3.21001 1.01309 3.21001 1.212V2.397C4.49705 1.21419 6.10069 0.431763 7.82506 0.145293C9.54944 -0.141176 11.3199 0.0807065 12.9203 0.783843C14.5206 1.48698 15.8816 2.64094 16.8369 4.10478C17.7923 5.56862 18.3007 7.27899 18.3 9.027C18.3 11.4137 17.352 13.7026 15.6645 15.3904C13.977 17.0782 11.6882 18.0266 9.30151 18.027C6.91456 18.027 4.62538 17.0788 2.93755 15.391C1.24973 13.7031 0.301514 11.4139 0.301514 9.027H1.80151C1.80151 11.0161 2.59169 12.9238 3.99821 14.3303C5.40474 15.7368 7.31239 16.527 9.30151 16.527C11.2906 16.527 13.1983 15.7368 14.6048 14.3303C16.0113 12.9238 16.8015 11.0161 16.8015 9.027C16.8016 7.51635 16.3455 6.04088 15.493 4.7938C14.6405 3.54671 13.4312 2.58614 12.0235 2.03787C10.6159 1.4896 9.07551 1.37918 7.60406 1.72108C6.13261 2.06298 4.79871 2.84126 3.77701 3.954H3.77551Z" fill="black"/>
</svg>
