<svg width="18" height="14" viewBox="0 0 18 14" fill="none" xmlns="http://www.w3.org/2000/svg">
<path d="M14.0001 6.16668V7.83334H17.3334V6.16668H14.0001ZM12.3334 11.675C13.1334 12.2667 14.1751 13.05 15.0001 13.6667C15.3334 13.225 15.6667 12.775 16.0001 12.3333C15.1751 11.7167 14.1334 10.9333 13.3334 10.3333C13.0001 10.7833 12.6667 11.2333 12.3334 11.675ZM16.0001 1.66668C15.6667 1.22501 15.3334 0.77501 15.0001 0.333344C14.1751 0.95001 13.1334 1.73334 12.3334 2.33334C12.6667 2.77501 13.0001 3.22501 13.3334 3.66668C14.1334 3.06668 15.1751 2.29168 16.0001 1.66668ZM2.33341 4.50001C1.41675 4.50001 0.666748 5.25001 0.666748 6.16668V7.83334C0.666748 8.75001 1.41675 9.50001 2.33341 9.50001H3.16675V12.8333H4.83342V9.50001H5.66675L9.83342 12V2.00001L5.66675 4.50001H2.33341ZM11.9167 7.00001C11.9167 5.89168 11.4334 4.89168 10.6667 4.20834V9.78334C11.4334 9.10834 11.9167 8.10834 11.9167 7.00001Z" fill="#6F6F6F"/>
</svg>
